<?xml version="1.0" encoding="utf-8"?>
<!-- Generator: Adobe Illustrator 27.8.0, SVG Export Plug-In . SVG Version: 6.00 Build 0)  -->
<svg version="1.1" id="Layer_1" xmlns="http://www.w3.org/2000/svg" xmlns:xlink="http://www.w3.org/1999/xlink" x="0px" y="0px"
	 viewBox="0 0 500 289.69" style="enable-background:new 0 0 500 289.69;" xml:space="preserve">
<style type="text/css">
	.st0{fill:#FF0008;}
	.st1{fill:#2C0092;}
	.st2{fill:#FFFFFF;}
</style>
<g>
	<g>
		<path class="st0" d="M11.15,263.4l-0.47,0.87c-1.96,3.62-2.94,6.41-2.94,8.39c0,0.58,0.23,1.16,0.68,1.71
			c-0.37,0.11-1.21,0.42-2.52,0.89c-0.6,0.22-1.18,0.32-1.72,0.32c-1.09,0-1.63-0.51-1.63-1.53c0-2.14,1.34-5.39,4.03-9.77
			l0.73-1.16H6.1c-2.54,0-4.52,0.39-5.92,1.16c0.73-2.58,2.7-3.87,5.9-3.87l2.89,0.06l0.63-0.92c2.44-3.62,6.17-8.48,11.2-14.61
			c1.69-2.09,2.96-3.36,3.8-3.87c0.84-0.52,2.47-0.97,4.88-1.38c-0.45,2.76-0.67,5.33-0.67,7.71c0,6.31,0.73,12.7,2.21,19.17
			c0.81,3.55,2.05,5.86,3.71,6.88c-1.46,1.43-2.71,2.13-3.76,2.13c-2.45,0-4.35-4.15-5.69-12.47c-2.56,0.27-5.15,0.41-7.77,0.41
			L11.15,263.4z M12.83,260.68l4.71,0.11c3.22,0,5.69-0.1,7.4-0.33c-0.72-5.37-1.07-9.84-1.07-13.39l0.02-1.72
			c-0.51,0.64-1.67,2.04-3.46,4.19c-3.24,3.92-5.6,7.33-7.11,10.23L12.83,260.68z"/>
		<path class="st0" d="M60.83,261.26c-2.43,4.31-4.97,7.73-7.62,10.25c-2.65,2.53-5.02,3.79-7.1,3.79c-1.66,0-2.99-0.72-3.97-2.15
			c-0.98-1.43-1.47-3.36-1.47-5.76c0-4.86,1.46-9.1,4.38-12.75c2.93-3.63,6.33-5.47,10.2-5.47c2.31,0,4.84,0.74,7.58,2.19
			l2.49-12.39c-1.37,0.28-2.5,0.42-3.4,0.42c-1.37,0-2.37-0.33-3.01-0.97c-0.64-0.64-1.14-1.84-1.54-3.59
			c1.12,0.74,2.83,1.13,5.16,1.13c2.88,0,5.65-0.52,8.33-1.57l-5.08,25.23c-0.58,2.82-0.86,5.23-0.86,7.2
			c0,2.64,0.75,3.95,2.28,3.95c1.49,0,3.98-1.72,7.46-5.17c3.47-3.46,6.37-7.07,8.69-10.84l1.91,1.19
			c-2.76,5.01-6.23,9.48-10.37,13.42c-4.15,3.94-7.46,5.92-9.93,5.92c-3.14,0-4.71-2.49-4.71-7.46
			C60.24,265.79,60.44,263.59,60.83,261.26z M62.06,255.16c-3.24-2.1-5.93-3.15-8.08-3.15c-2.33,0-4.35,1.41-6.05,4.23
			c-1.7,2.82-2.55,6.16-2.55,10c0,3.11,1.02,4.66,3.08,4.66c2.21,0,6.46-4.82,12.74-14.46C61.3,256.27,61.59,255.85,62.06,255.16z"
			/>
		<path class="st0" d="M98.51,261.26c-2.43,4.31-4.97,7.73-7.62,10.25c-2.65,2.53-5.02,3.79-7.1,3.79c-1.67,0-2.99-0.72-3.97-2.15
			c-0.98-1.43-1.47-3.36-1.47-5.76c0-4.86,1.46-9.1,4.39-12.75c2.92-3.63,6.32-5.47,10.2-5.47c2.31,0,4.84,0.74,7.58,2.19l2.5-12.39
			c-1.37,0.28-2.5,0.42-3.41,0.42c-1.38,0-2.37-0.33-3.01-0.97c-0.63-0.64-1.15-1.84-1.54-3.59c1.12,0.74,2.84,1.13,5.16,1.13
			c2.88,0,5.65-0.52,8.33-1.57l-5.08,25.23c-0.58,2.82-0.87,5.23-0.87,7.2c0,2.64,0.77,3.95,2.29,3.95c1.49,0,3.98-1.72,7.45-5.17
			c3.48-3.46,6.37-7.07,8.7-10.84l1.91,1.19c-2.77,5.01-6.23,9.48-10.37,13.42c-4.14,3.94-7.45,5.92-9.92,5.92
			c-3.14,0-4.72-2.49-4.72-7.46C97.92,265.79,98.12,263.59,98.51,261.26z M99.74,255.16c-3.24-2.1-5.93-3.15-8.07-3.15
			c-2.33,0-4.35,1.41-6.05,4.23c-1.7,2.82-2.55,6.16-2.55,10c0,3.11,1.02,4.66,3.07,4.66c2.21,0,6.46-4.82,12.74-14.46
			C98.98,256.27,99.27,255.85,99.74,255.16z"/>
		<path class="st0" d="M160.03,265.23c0.29,0.69,0.44,1.24,0.44,1.63c0,2-1.73,3.96-5.19,5.86c-3.46,1.9-7.02,2.85-10.66,2.85
			c-3.98,0-7.12-1.13-9.43-3.41c-2.31-2.3-3.46-5.42-3.46-9.4c0-6.28,2.08-11.67,6.25-16.18c4.17-4.52,9.15-6.77,14.96-6.77
			c2.36,0,4.36,0.41,5.97,1.24c1.62,0.84,2.43,1.85,2.43,3.04c0,1.08-0.7,2.26-2.1,3.55c-1.88-3.71-4.55-5.56-8-5.57
			c-3.78,0.01-7.07,1.94-9.89,5.81c-2.81,3.87-4.22,8.38-4.22,13.54c0,3.3,0.84,5.9,2.53,7.82c1.69,1.92,3.97,2.89,6.85,2.9
			C151.42,272.15,155.92,269.83,160.03,265.23z"/>
		<path class="st0" d="M191.41,257.76c0.05,0.37,0.07,0.71,0.07,0.99c0,4.43-1.52,8.3-4.57,11.6c-3.04,3.3-6.62,4.96-10.71,4.96
			c-3.13,0-5.67-0.99-7.64-2.96c-1.96-1.97-2.96-4.54-2.96-7.68c0-3.56,1.28-6.67,3.82-9.29c2.54-2.63,5.54-3.93,8.99-3.93
			c0.54,0,1.09,0.06,1.68,0.2c-0.39-0.69-0.58-1.28-0.58-1.75c0-0.74,0.25-1.44,0.77-2.11c3.79,0.3,6.96,2.22,9.47,5.75
			c2.59,1.73,5.27,2.6,8.08,2.6c1.82,0,3.79-0.6,5.9-1.81l1.17,1.96c-2.48,1.7-5.01,2.55-7.6,2.55
			C195.56,258.81,193.61,258.46,191.41,257.76z M186.12,255.81c-1.29-0.39-2.48-1-3.57-1.85c-0.8-0.17-1.46-0.25-1.98-0.25
			c-2.65,0-4.99,1.17-7.03,3.53c-2.05,2.34-3.07,5.02-3.07,8.03c0.01,2.17,0.63,3.97,1.86,5.38c1.23,1.39,2.83,2.1,4.77,2.1
			c2.63,0,4.89-1.31,6.79-3.93c1.9-2.61,2.84-5.73,2.84-9.35C186.72,258.2,186.52,256.97,186.12,255.81z"/>
		<path class="st0" d="M224.31,255.96c-3.22,6.04-6.46,10.77-9.71,14.19c-3.25,3.43-6.13,5.15-8.63,5.15
			c-1.83,0-3.29-0.71-4.41-2.09c-1.12-1.39-1.68-3.2-1.68-5.44c0-1.26,0.23-3.04,0.69-5.34l4.65-23.06
			c-0.61,0.1-1.14,0.14-1.59,0.14c-3.57,0-5.37-1.48-5.37-4.43v-0.52c1.87,1.04,3.98,1.56,6.33,1.56c2.35,0,4.4-0.58,6.16-1.73
			l-5.42,27.7c-0.48,2.48-0.72,4.19-0.72,5.12c0,2.6,0.96,3.89,2.89,3.89c1.87,0,3.75-1.03,5.64-3.11c1.89-2.07,4.99-6.51,9.3-13.29
			L224.31,255.96z"/>
		<path class="st0" d="M242.86,257.76c0.05,0.37,0.08,0.71,0.08,0.99c0,4.43-1.53,8.3-4.58,11.6c-3.06,3.3-6.62,4.96-10.71,4.96
			c-3.13,0-5.67-0.99-7.64-2.96c-1.97-1.97-2.95-4.54-2.95-7.68c0-3.56,1.27-6.67,3.81-9.29c2.54-2.63,5.55-3.93,9-3.93
			c0.53,0,1.09,0.06,1.68,0.2c-0.39-0.69-0.58-1.28-0.58-1.75c0-0.74,0.25-1.44,0.76-2.11c3.79,0.3,6.95,2.22,9.47,5.75
			c2.59,1.73,5.28,2.6,8.08,2.6c1.82,0,3.79-0.6,5.9-1.81l1.16,1.96c-2.47,1.7-5,2.55-7.6,2.55
			C247.01,258.81,245.05,258.46,242.86,257.76z M237.56,255.81c-1.29-0.39-2.48-1-3.57-1.85c-0.79-0.17-1.45-0.25-1.99-0.25
			c-2.63,0-4.98,1.17-7.03,3.53c-2.04,2.34-3.06,5.02-3.07,8.03c0.01,2.17,0.62,3.97,1.86,5.38c1.23,1.39,2.82,2.1,4.76,2.1
			c2.63,0,4.9-1.31,6.79-3.93c1.89-2.61,2.84-5.73,2.84-9.35C238.16,258.2,237.96,256.97,237.56,255.81z"/>
		<path class="st0" d="M271.02,260.55c-2.14,4.37-4.54,7.93-7.18,10.65c-2.65,2.73-5.02,4.1-7.12,4.1c-1.69,0-3.07-0.59-4.12-1.77
			c-1.06-1.19-1.59-2.71-1.59-4.59c0-2.43,0.82-6.88,2.47-13.35c0.44-1.75,0.67-2.85,0.67-3.3c0-0.47-0.15-0.97-0.44-1.5l3.23-0.02
			c1.38,0,2.07,0.53,2.07,1.59c0,0.65-0.45,2.55-1.35,5.68c-0.28,0.93-0.46,1.58-0.54,1.93l-0.35,1.4c-0.69,2.8-1.03,4.93-1.03,6.4
			c0,2.27,0.8,3.4,2.38,3.4c2.6,0,5.89-3.16,9.89-9.51c3.26-5.15,4.9-8.83,4.9-11.02c0-0.31-0.09-0.61-0.28-0.92
			c1.27-0.36,2.36-0.54,3.24-0.54c1.37,0,2.05,0.41,2.05,1.25c0,0.19-0.06,0.49-0.19,0.87c-0.06,0.23-0.21,0.79-0.45,1.67
			c-0.03,0.17-0.18,0.79-0.46,1.86c-0.2,0.76-0.35,1.35-0.44,1.8l-0.23,1.11c-0.52,2.52-0.77,4.89-0.77,7.1
			c0,3.37,0.82,5.05,2.48,5.05c3.63,0,8.26-5.05,13.86-15.15l1.96,1.15C287.3,267.95,281.46,274,276.17,274
			c-3.56,0-5.34-3.04-5.34-9.13C270.83,263.72,270.9,262.28,271.02,260.55z"/>
		<path class="st0" d="M292.88,274.56c-1.06,0.49-1.91,0.74-2.55,0.74c-1.59,0-2.39-0.69-2.39-2.08c0-0.69,0.28-2.45,0.83-5.27
			l1.17-5.73c0.72-3.41,1.07-5.93,1.07-7.57c0-0.9-0.25-1.63-0.77-2.24c1.63-0.55,2.97-0.83,3.99-0.83c1.09,0,1.63,0.69,1.63,2.05
			c0,0.84-0.39,3.06-1.16,6.65l-1.32,6.69c2.94-5.62,5.9-10.01,8.86-13.12c2.98-3.12,5.68-4.69,8.1-4.69c0.86,0,1.6,0.25,2.21,0.74
			c0.63,0.47,0.94,1.07,0.94,1.76c0,1.06-1.18,2.5-3.55,4.27c-0.59-1.22-1.43-1.81-2.51-1.81c-1.98,0-4.5,2.07-7.56,6.21
			c-1.9,2.58-3.54,5.23-4.94,7.98c-1.4,2.74-2.1,4.69-2.1,5.86L292.88,274.56z"/>
		<path class="st0" d="M346.84,265.61c0.42,0.76,0.64,1.41,0.64,1.97c0,1.51-1.29,3.17-3.87,4.99c-2.57,1.83-4.92,2.74-7.03,2.74
			c-1.87,0-3.39-0.83-4.56-2.46c-1.17-1.65-1.76-3.77-1.76-6.36c0-2.88,0.77-6.99,2.31-12.32l1.07-3.87h-3.94
			c-1.64,0-2.96,0.23-3.94,0.7c0.91-1.62,1.65-2.64,2.24-3.05c0.6-0.4,1.6-0.61,3.01-0.61h3.52l0.47-1.59
			c0.71-2.37,1.57-4,2.56-4.89c1-0.89,2.49-1.33,4.48-1.33c0.23,0,0.61,0.02,1.12,0.06c-1.22,1.54-2.48,4.12-3.78,7.76h12.31
			c2.16,0,3.81-0.28,4.95-0.83c-0.39,1.57-0.9,2.59-1.55,3.07c-0.64,0.49-1.84,0.72-3.6,0.72h-13.11c-0.15,0.51-0.27,0.89-0.35,1.14
			c-1.88,6.31-2.82,11.09-2.82,14.31c0,3.56,1.3,5.34,3.89,5.34c1.34,0,2.8-0.56,4.38-1.69
			C345.05,268.28,346.19,267.02,346.84,265.61z"/>
		<path class="st0" d="M375.18,257.76c0.04,0.37,0.06,0.71,0.06,0.99c0,4.43-1.52,8.3-4.57,11.6c-3.05,3.3-6.62,4.96-10.71,4.96
			c-3.12,0-5.67-0.99-7.63-2.96c-1.97-1.97-2.96-4.54-2.96-7.68c0-3.56,1.27-6.67,3.82-9.29c2.54-2.63,5.54-3.93,9-3.93
			c0.53,0,1.08,0.06,1.68,0.2c-0.39-0.69-0.58-1.28-0.58-1.75c0-0.74,0.26-1.44,0.77-2.11c3.79,0.3,6.96,2.22,9.47,5.75
			c2.58,1.73,5.27,2.6,8.06,2.6c1.83,0,3.8-0.6,5.91-1.81l1.17,1.96c-2.47,1.7-5.01,2.55-7.6,2.55
			C379.33,258.81,377.37,258.46,375.18,257.76z M369.88,255.81c-1.29-0.39-2.48-1-3.58-1.85c-0.79-0.17-1.45-0.25-1.98-0.25
			c-2.65,0-5,1.17-7.03,3.53c-2.04,2.34-3.06,5.02-3.07,8.03c0,2.17,0.62,3.97,1.86,5.38c1.23,1.39,2.82,2.1,4.77,2.1
			c2.63,0,4.89-1.31,6.78-3.93c1.9-2.61,2.84-5.73,2.85-9.35C370.48,258.2,370.28,256.97,369.88,255.81z"/>
		<path class="st0" d="M423.21,269.71c-0.51,1.51-1.12,2.6-1.81,3.29c-0.71,0.69-2.48,1.29-5.32,1.81c-2.84,0.51-5.84,0.76-9,0.76
			c-4.95,0-7.44-1.66-7.44-5.01c0-0.93,0.27-2.71,0.8-5.33l4.54-22.61c0.27-1.29,0.4-2.23,0.4-2.79c0-0.53-0.18-1.01-0.56-1.45
			c2.07-0.77,3.51-1.16,4.32-1.16c0.96,0,1.45,0.54,1.45,1.64c0,0.28-0.26,1.63-0.77,4.05l-4.06,20.19
			c-0.59,2.9-0.88,4.91-0.88,6.05c0,1.92,2.14,2.87,6.46,2.87C415.18,272.02,419.14,271.26,423.21,269.71z"/>
		<path class="st0" d="M455.2,255.89c-3.52,6.07-7.07,10.83-10.66,14.26c-3.6,3.43-6.82,5.15-9.68,5.15c-1.75,0-3.15-0.56-4.21-1.69
			c-1.07-1.12-1.6-2.6-1.6-4.42c0-0.69,0.15-1.78,0.47-3.29l0.51-2.54c0.76-3.65,1.14-6.22,1.14-7.69c0-0.88-0.26-1.59-0.79-2.14
			c2.02-0.47,3.29-0.69,3.81-0.69c1.15,0,1.73,0.8,1.73,2.39c0,1.18-0.23,2.88-0.68,5.08l-0.91,4.48c-0.45,2.18-0.67,3.58-0.67,4.21
			c0,1.89,0.81,2.85,2.45,2.85c1.94,0,4.53-1.62,7.77-4.83c3.24-3.24,6.37-7.33,9.4-12.28L455.2,255.89z M434.44,244.29l0.32,0.04
			c1.04-0.06,2.54-0.57,4.5-1.56c1.94-1,3.47-2,4.58-3.04c-0.68,2.11-1.89,3.89-3.64,5.32c-2.65,2.18-4.43,3.27-5.37,3.27
			c-0.62,0-0.94-0.38-0.94-1.13C433.89,246.12,434.07,245.15,434.44,244.29z"/>
		<path class="st0" d="M452.17,256.4h-0.47c-2.32,0-4.34,0.57-6.07,1.7c0.37-1.96,0.92-3.2,1.65-3.73c0.72-0.53,2.24-0.8,4.56-0.8
			h0.89l0.77-3.79c1.04-5.16,2.71-8.88,4.99-11.14c2.83-2.83,5.97-4.24,9.4-4.24c1.34,0,2.48,0.31,3.46,0.93
			c0.96,0.61,1.44,1.35,1.44,2.23c0,0.9-1,1.92-3.01,3.07c-0.56-2.35-1.84-3.52-3.83-3.52c-3.53,0-6.06,3.79-7.58,11.37l-1.03,5.11
			h8.14c3.72,0,6.45-0.19,8.19-0.58c-0.75,1.61-1.59,2.6-2.55,2.92c-0.95,0.32-3.42,0.5-7.38,0.5h-6.98l-3.97,19.75
			c-0.38,1.9-0.59,3.57-0.59,5c0,0.9,0.21,1.72,0.61,2.45c-1.55,0.5-2.75,0.76-3.59,0.76c-1.29,0-1.93-0.72-1.93-2.15
			c0-1.11,0.25-2.95,0.77-5.52L452.17,256.4z"/>
		<path class="st0" d="M470.69,265.14c0,4.5,1.94,6.73,5.79,6.73c3.34,0,7.03-1.57,11.05-4.7c4.03-3.14,7.66-7.28,10.9-12.41
			l1.98,1.09c-3.05,5.61-7.02,10.25-11.89,13.93c-4.88,3.68-9.5,5.52-13.87,5.52c-2.8,0-5.01-0.89-6.63-2.67
			c-1.63-1.79-2.44-4.22-2.44-7.3c0-4.45,1.47-8.27,4.42-11.42c2.95-3.15,6.5-4.74,10.65-4.74c2,0,3.61,0.5,4.82,1.49
			c1.2,1,1.81,2.33,1.81,4c0,2.74-1.68,5.17-5.03,7.29C478.91,264.08,475.05,265.14,470.69,265.14z M470.88,262.93
			c3.25-0.17,6.04-1.09,8.37-2.75c2.32-1.67,3.48-3.6,3.48-5.79c0-1.96-0.88-2.94-2.66-2.94c-2.12,0-4.07,1.13-5.86,3.35
			C472.43,257.04,471.31,259.75,470.88,262.93z"/>
	</g>
	<g>
		<polygon class="st1" points="500.42,181.26 250.04,223.76 0,181.26 0,49.28 250.04,5.32 500.42,49.28 		"/>
		<polygon class="st2" points="39.79,147.03 39.79,81.78 53.14,81.78 53.14,110.75 80.14,81.78 98.1,81.78 73.18,107.19 
			99.45,147.03 82.17,147.03 63.97,116.41 53.14,127.32 53.14,147.03 		"/>
		<polygon class="st2" points="104.5,147.03 104.5,81.78 153.55,81.78 153.55,92.81 117.86,92.81 117.86,107.28 151.07,107.28 
			151.07,118.28 117.86,118.28 117.86,136.04 154.82,136.04 154.82,147.03 		"/>
		<polygon class="st2" points="164.43,147.03 164.43,81.78 177.43,81.78 204.51,125.36 204.51,81.78 216.92,81.78 216.92,147.03 
			203.51,147.03 176.85,104.48 176.85,147.03 		"/>
		<path class="st2" d="M242.62,92.81v18.52h7.34c5.29,0,8.8-0.33,10.57-1.03c1.78-0.66,3.17-1.74,4.18-3.21
			c1-1.45,1.5-3.14,1.5-5.06c0-2.38-0.7-4.34-2.11-5.87c-1.42-1.55-3.21-2.52-5.38-2.88c-1.59-0.32-4.8-0.46-9.64-0.46H242.62z
			 M229.2,147.03V81.78h21.52c8.14,0,13.45,0.33,15.91,0.97c3.79,0.99,6.97,3.11,9.52,6.39c2.55,3.28,3.84,7.51,3.84,12.71
			c0,4.01-0.74,7.37-2.21,10.1c-1.48,2.74-3.35,4.87-5.62,6.44c-2.28,1.56-4.58,2.59-6.93,3.09c-3.19,0.62-7.81,0.94-13.88,0.94
			h-8.75v24.61H229.2z"/>
		<path class="st2" d="M300.18,114.36c0,7.39,1.72,13,5.18,16.8c3.46,3.82,7.85,5.72,13.17,5.72c5.32,0,9.7-1.88,13.11-5.67
			c3.42-3.78,5.12-9.46,5.12-17.03c0-7.48-1.65-13.05-4.99-16.73c-3.32-3.68-7.74-5.52-13.25-5.52c-5.51,0-9.94,1.86-13.31,5.58
			C301.86,101.24,300.18,106.84,300.18,114.36 M295.11,139.27c-5.79-5.93-8.7-14.07-8.7-24.47c0-6.64,1.01-12.22,3.02-16.73
			c1.51-3.33,3.56-6.31,6.15-8.94c2.6-2.64,5.45-4.6,8.55-5.89c4.14-1.71,8.88-2.58,14.27-2.58c9.73,0,17.55,2.99,23.39,8.95
			c5.86,5.97,8.79,14.26,8.79,24.89c0,10.53-2.91,18.76-8.72,24.74c-5.8,5.95-13.56,8.92-23.28,8.92
			C308.74,148.16,300.92,145.19,295.11,139.27"/>
		<polygon class="st2" points="359.52,147.03 359.52,82.3 372.87,82.3 372.87,136.04 406.08,136.04 406.08,147.03 		"/>
		<polygon class="st2" points="422.67,147.03 422.67,119.57 398.41,81.78 414.07,81.78 429.65,107.6 444.91,81.78 460.28,81.78 
			435.96,119.67 435.96,147.03 		"/>
	</g>
</g>
</svg>
